<svg width="184" height="184" viewBox="0 0 184 184" fill="none" xmlns="http://www.w3.org/2000/svg">
<path d="M50 53L78.7273 53L78.7273 146.091L48.7273 146.091C39.697 146.091 31.9697 144.227 25.5455 140.5C19.1212 136.803 14.197 131.485 10.7727 124.545C7.34849 117.636 5.63637 109.364 5.63637 99.7273C5.63637 90.0303 7.36364 81.6818 10.8182 74.6818C14.2727 67.7121 19.303 62.3485 25.9091 58.5909C32.5152 54.8636 40.5455 53 50 53ZM67.4546 63L50.7273 63C43.0303 63 36.6515 64.4848 31.5909 67.4545C26.5303 70.4242 22.7576 74.6515 20.2727 80.1364C17.7879 85.6212 16.5455 92.1515 16.5455 99.7273C16.5455 107.242 17.7727 113.712 20.2273 119.136C22.6818 124.591 26.3485 128.773 31.2273 131.682C36.1061 134.621 42.1818 136.091 49.4545 136.091L67.4545 136.091L67.4546 63Z" fill="#0161EF"/>
<path d="M175.091 37.9091L175.091 131L164.182 131L113.455 57.9091L112.545 57.9091L112.545 131L101.273 131L101.273 37.9091L112.182 37.9091L163.091 111.182L164 111.182L164 37.9091L175.091 37.9091Z" fill="#0161EF"/>
<path d="M84.2727 146L84.2727 52.9091L95.5455 52.9091L95.5455 136L138.818 136L138.818 146L84.2727 146Z" fill="#0161EF"/>
<path d="M73 118L37 118L37 108L73 108L73 118Z" fill="#0161EF"/>
</svg>
